<svg height="1200" viewBox="0 0 1920 1200" width="1920" xmlns="http://www.w3.org/2000/svg"
  xmlns:xlink="http://www.w3.org/1999/xlink" preserveAspectRatio="xMidYMin">
  <linearGradient id="a" gradientTransform="rotate(0)">
    <stop offset="0%" stop-color="#00f">
      <animate attributeName="stop-color" values="#00f; #82777C; #00f;" dur="4s" repeatCount="indefinite"></animate>
    </stop>
    <stop offset="50%" stop-color="#82777C">
      <animate attributeName="stop-color" values="#82777C; #00f; #82777C;" dur="7s" repeatCount="indefinite"></animate>
    </stop>
    <stop offset="100%" stop-color="#82777C">
      <animate attributeName="stop-color" values="#00f; #82777C; #00f;" dur="10s" repeatCount="indefinite"></animate>
    </stop>
  </linearGradient>
  <linearGradient id="b" gradientTransform="rotate(0)">
    <stop offset="0%" stop-color="#00f">
      <animate attributeName="stop-color" values="#00f; #82777C; #00f;" dur="4s" repeatCount="indefinite"></animate>
    </stop>
    <stop offset="50%" stop-color="#82777C">
      <animate attributeName="stop-color" values="#82777C; #00f; #82777C;" dur="7s" repeatCount="indefinite"></animate>
    </stop>
    <stop offset="100%" stop-color="#82777C">
      <animate attributeName="stop-color" values="#00f; #82777C; #00f;" dur="10s" repeatCount="indefinite"></animate>
    </stop>
  </linearGradient>
  <path
    d="m.07555486 1089.35121c34.83058714 10.26514 70.33904454 16.97279 107.56193514 11.34127 48.811383-7.38221 92.268647-27.09289 105.184154-91.55656 8.127543-40.560903 20.307598-79.853231 35.862362-118.246102 6.372815-15.727617 9.95177-32.590173 16.730042-48.332205 9.787596-22.718631 16.842141-27.351007 41.592111-24.772508 10.378273 1.080211 20.884057 2.171992 30.962091 4.725752 49.312955 12.505662 89.482438-2.270729 123.263081-39.049329 14.194304-15.456089 30.799648-28.456901 51.357664-34.532259 28.033719-8.288187 52.341179 3.511634 75.680909 16.656676 20.63502 11.622057 38.32724 28.047369 60.143046 37.918616 30.873047 13.97004 62.212791 12.100209 90.675515-3.740008 58.198554-32.389094 110.072236-72.474622 145.021668-131.213426 22.49718-37.809685 50.736349-69.934592 93.878119-85.501363 49.634018-17.909594 97.304568-12.348588 142.731998 12.931682 17.51866 9.748379 25.34548 26.038199 24.02441 46.686193-1.98763 31.032552-12.02354 60.445118-17.49927 90.775162-9.99812 55.37877-3.02151 108.400044 17.17019 160.593181 23.02212 59.507153 55.51308 114.272628 83.50264 171.284908 5.8535 11.92179 10.66265 24.35889 16.59834 36.23707 23.58179 47.21106 66.31028 67.65191 113.65132 83.30344 48.0278 15.87676 86.6112 4.56192 121.52566-30.99035 26.90661-27.39629 56.37464-52.03992 94.35517-64.44954 32.18998-10.51772 65.10334-13.06392 98.33376-12.44595 66.02051 1.23012 131.92176 4.26195 196.79742 18.52892 17.5368 3.85712 34.32806 9.69667 50.89566 16.1338v6.21276c-3.5409-1.34128-7.09211-2.65437-10.65745-3.92899-40.91825-14.62683-83.73681-20.75346-126.9706-23.93497-54.91266-4.04047-109.80613-9.23168-164.86687-2.1926-39.18108 5.01046-74.03373 19.80545-103.88488 45.86149-16.45642 14.36698-32.63815 29.05083-49.19209 43.30158-22.9838 19.78698-48.91368 27.26579-79.34983 20.99481-31.50345-6.49016-61.09706-18.14868-89.62269-32.00921-27.29236-13.26085-47.47293-36.09682-59.37054-63.40994-27.87577-63.99718-64.12698-123.714364-92.2872-187.639021-32.67079-74.163815-35.85215-148.440595-14.23875-225.157323 4.13159-14.669523 6.71135-29.637227 7.44063-44.863974 1.10152-23.056762-8.75763-39.033782-29.80516-48.843534-71.46704-33.302658-152.424306-12.59776-199.706086 50.635384-16.772811 22.431593-29.877655 47.334626-48.198834 68.744228-32.912439 38.456885-72.99616 67.987285-116.928805 91.857177-38.375452 20.851207-77.215532 15.179637-113.927332-6.723717-12.213669-7.28851-23.738065-15.742816-35.465858-23.830652-49.221857-33.951745-85.739234-30.040715-127.73147 12.986233-18.301198 18.750368-37.718616 36.078706-64.630797 42.131206-20.057944 4.510463-39.642311 1.434665-59.363592-1.690304-11.718937-1.855418-23.433599-4.040985-35.239157-4.997228-20.949679-1.697617-28.837845 2.471964-35.815537 22.466264-17.94013 51.410975-38.718798 101.911723-49.594782 155.651331-3.16417 15.6381-6.663767 31.3988-14.463787 45.95671-18.727297 34.95389-49.667899 50.92382-86.792357 57.69938-37.7557208 6.89234-75.0005423 3.10062-111.0873565-8.78444-2.74734597-.90484-5.49695655-1.80029-8.24881464-2.6864v-6.09329zm1920.00000514-419.161039c-3.4811-8.338338-6.64034-16.957682-9.5336-25.819479-8.06448-24.695057-15.96882-49.482132-28.57671-72.663347-25.51192-46.915358-61.19705-51.173965-106.67279-25.782613-28.99738 16.189622-55.45523 36.616498-85.30221 51.424203-43.09393 21.375511-87.76573 38.515112-134.81864 48.82645-31.19435 6.836051-57.62537-4.113194-78.4336-26.643474-26.68082-28.888556-56.9018-52.864893-90.06905-73.695689-32.15321-20.190628-39.40154-38.391628-26.78011-74.660093 20.95234-60.205586 34.33246-122.265958 48.37006-184.211264 6.59851-29.129688 14.98163-57.928612 16.67228-87.990258.69756-12.378662.69728-24.83338-2.69141-36.77647-8.54076-30.105331-30.42961-44.262102-65.09995-43.028073-26.31771.936558-51.60034 7.315561-76.93263 13.825075-41.02757 10.539366-82.04242 16.474465-122.69828-2.240905-29.72499-13.684423-53.06865-35.1740707-72.4724-60.6707799-18.3627-24.1279559-37.53747-47.3455681-57.91332-69.58829597h12.09939c17.93544 20.11306927 34.24234 41.60508917 50.60735 63.09590117 11.55281 15.1709289 24.78974 28.7452426 39.14584 41.2690667 34.85539 30.408995 75.47304 35.02874 119.09389 27.049012 33.58215-6.141734 65.91098-18.456341 100.44635-20.00303 10.5327-.473759 20.89783-.053395 31.18836 1.943977 29.97033 5.8185 49.08285 27.387108 52.23328 57.769878 3.40682 32.85252-4.11472 64.365702-12.09833 95.56928-12.34913 48.255371-19.86096 97.647741-34.53687 145.316424-7.24565 23.53361-15.88392 46.633632-21.28912 70.732603-5.03615 22.462703 1.27243 40.600534 20.86462 52.916735 37.9575 23.857076 73.22051 50.746312 103.52016 84.14532 20.66028 22.774727 47.25431 23.566177 75.04468 16.040091 64.11582-17.3686 124.69247-42.503507 179.88203-80.075475 18.76024-12.77242 37.66817-25.872358 60.5506-30.814996 32.09442-6.933343 59.1197 4.203757 78.02038 31.052119 18.12054 25.74342 25.81095 55.800189 36.36856 84.67995.60153 1.645454 1.20485 3.289667 1.81119 4.931806zm-1436.068732-669.69501287c-20.764887 42.16883197-19.112225 87.67764597-2.932857 135.15750587 6.964077 20.43388 19.049336 38.296719 30.77559 56.051386 28.260354 42.783373 37.811884 90.063015 33.219813 139.974363-4.705177 51.134772-7.386468 102.106981-5.338635 153.487214 1.410478 35.389298-8.337744 67.72676-36.631469 91.929108-18.566322 15.883756-40.685888 21.715397-64.544564 22.302594-27.961279.69043-56.085198-.476372-82.183883 12.868072-38.000761 19.429249-66.366357 48.519256-87.072551 85.380869-6.255363 11.138012-11.565146 22.81171-17.255783 34.263928-8.474128 17.048124-17.936641 20.526314-35.963952 14.121667-18.632596-6.618469-32.227524-19.808878-45.120125-33.79413-30.895731-33.513854-59.200862-69.37663-91.6153872-101.512854-5.3621538-5.31621-11.4153466-10.048122-17.6090199-14.394289-14.0284117-9.850111-29.3314128-9.499865-43.7882329.085335-7.0440686 4.671462-12.93657134 10.397346-17.87021409 16.89205v-11.427899c20.26162089-24.46543 44.23395119-26.786294 71.57440379-7.243474 12.8324343 9.173309 23.4978714 20.636219 34.1610203 32.150443 30.630959 33.081148 57.713558 69.405672 91.22557 99.852693 2.106933 1.914491 4.296148 3.754675 6.550265 5.495089 21.064718 16.242203 35.989586 12.156139 46.918827-12.003384 12.961763-28.657582 29.191477-55.032998 51.26198-78.052951 36.839398-38.422122 81.57496-52.463026 133.846602-50.635799 44.966655 1.570785 79.905686-24.052127 92.240309-64.145501 5.661418-18.40271 5.894514-37.67417 4.322558-56.541006-3.329461-40.021151-.609899-79.773976 4.035608-119.363256 7.012382-59.759429-2.467458-115.205624-37.423537-165.414273-24.46672-35.144723-38.20932-73.884793-37.522348-117.3719805.393494-24.8569294 6.009127-47.3707305 15.519282-68.11152037zm34.289652 0h7.949195c-14.47794 29.40315607-17.630018 61.36940967-5.949073 96.70408517 5.437044 16.4448647 14.642391 30.7664167 24.039016 45.0176957 13.039898 19.77791 28.785121 38.146578 36.9329 60.608182 14.215093 39.194929 19.723702 80.070405 18.70187 121.698073-1.176814 47.876047-5.449891 95.78607 4.586433 143.323246 6.588541 31.204367 5.53272 62.27436-3.302676 92.989351-3.929872 13.659447-8.758579 27.109442-11.842961 40.950639-3.675865 16.491817-4.40165 33.136518 7.122798 47.522021 24.762623 30.926638 57.744354 51.672845 86.242235 70.935456 25.462933 10.632909 56.41548 5.822506 82.181203-8.399716 40.373335-22.285709 69.268517-55.747367 93.507389-93.780078 26.152395-41.034513 60.636487-71.32819 107.212216-87.065612 36.998545-12.502757 75.390795-15.721384 113.842185-14.431095 57.43609 1.927209 108.43322-11.639594 152.41096-50.559731 40.74392-36.058292 77.54299-73.329228 76.20264-133.162766-.64654-28.819016 11.70404-52.359182 31.76074-72.137257 10.60557-10.458149 18.86813-22.594555 26.59383-35.098493 9.39474-15.204893 9.40666-40.047511.07512-51.462826-12.17881-14.895802-27.99403-10.544887-43.41169-7.284477-17.35745 3.672484-32.91206 12.124942-49.11763 18.811193-16.53466 6.823802-33.63488 9.585781-51.4297 9.008461-51.85954-1.687632-94.5765-22.527659-127.60146-62.267354-36.16168-43.5154275-74.22047-84.9292578-118.069653-121.0405105-4.232643-3.48554754-8.264128-7.11619913-12.111517-10.87848737h10.848267c9.211539 9.56765677 19.302029 18.59907207 30.416433 27.01304557 29.54805 22.3683912 53.80632 50.6258805 77.22425 79.4875793 20.01388 24.667481 40.39172 49.362127 70.01861 63.677655 36.99345 17.875882 75.06463 22.526177 114.33973 8.656125 17.87058-6.311725 34.39318-16.300507 53.17427-20.172463 6.93288-1.428805 14.06764-2.779125 21.09626-2.702936 26.63501.284929 40.96484 17.128788 38.5778 43.529428-2.37497 26.279482-16.75428 46.359398-33.95247 64.212196-19.28709 20.018316-31.62434 41.737893-31.48448 70.487449.29384 61.122963-36.89814 100.857305-79.23513 138.340779-44.37539 39.28821-95.76766 53.110363-153.7395 51.101953-37.99199-1.316784-75.95186 1.889016-112.51492 14.097394-46.620099 15.565793-81.238156 45.734642-107.419886 86.834155-24.226169 38.031695-52.952009 71.78925-93.47697 93.856922-26.655788 14.52353-53.889994 20.704058-88.379972 7.304084-30.100569-18.171159-63.335521-40.778023-89.946036-71.839524-13.091825-15.283131-12.46389-33.283055-8.194111-51.320929 3.270555-13.815163 7.802124-27.336025 11.810243-40.976154 8.906384-30.28976 9.342641-60.936859 2.931111-91.620899-9.838917-47.097756-5.811989-94.535459-4.555302-141.955019 1.103898-41.640621-4.506051-82.440228-18.318356-121.810565-5.846903-16.662717-16.525355-30.860117-26.412113-45.373977-13.077942-19.196919-27.193871-37.863333-34.607867-60.277467-11.845281-35.8174296-9.680498-69.6272421 5.275769-100.54883187zm50.757981-.0000028h7.561073c-22.921304 41.98911167-15.606783 74.48312057 18.974402 114.90150067 22.379451 26.160327 42.17425 53.694662 48.887139 88.704806 8.692958 45.338827 13.828751 91.071839 14.929017 137.134826 1.086837 45.464514 3.016774 90.501469 30.112584 129.663127 19.250185 27.824377 35.864754 56.243197 44.976019 89.693452 8.995625 33.028655 33.579745 36.364032 55.302144 9.671384 13.828233-16.994871 26.606323-35.028582 47.03139-44.650664 41.749864-19.667281 84.835033-35.439591 130.382863-44.277242 41.266108-8.004882 83.258928-6.574646 124.780278-10.979583 41.90637-4.452183 75.19336-21.789521 90.78767-55.432043 12.50554-31.074075 11.31747-55.251344 2.5289-80.062703-11.46628-32.370636-32.73294-56.231552-60.52577-75.188619-25.40206-17.324342-47.68517-37.718087-62.3937-65.222398-7.60028-14.212601-14.50375-28.795104-22.05365-43.033444-20.40703-38.49339-53.04435-65.1722899-87.402016-90.2570333-23.621394-17.2449778-45.238692-36.339182-60.053996-60.66536637h9.658238c14.612669 22.52448687 34.965733 40.57975847 57.334464 56.87153267 34.773516 25.3265049 67.65306 52.410544 88.30392 91.29744 7.77992 14.650841 14.91554 29.640563 22.74797 44.260382 15.48751 28.909875 40.24682 48.730807 66.41279 67.208801 23.75426 16.775351 41.75126 37.883327 52.98179 65.365182 11.79091 28.872849 13.58511 56.847137 3.56658 78.546191-20.21321 50.280626-54.61669 69.102723-98.80088 73.842208-41.97377 4.504844-84.46066 2.957953-126.146336 11.217364-44.998046 8.915359-87.671171 24.466975-128.939998 44.024402-20.400864 9.668734-33.079716 27.791705-46.943743 44.722949-22.16193 27.065093-55.015706 22.932818-64.507849-10.769651-10.853519-38.54517-32.394794-70.189764-52.54625-103.371542-17.130876-28.206451-22.767522-59.921009-23.10752-92.826473-.513606-49.882026-5.77813-99.375892-12.784137-148.768294-6.009-42.361606-27.503161-76.147328-55.145088-107.137877-28.974351-32.4875893-36.900657-68.4673391-18.366679-109.18792682.806815-1.77300725 1.624502-3.53920903 2.458394-5.29468785zm61.556051.0000028h7.435008c-7.833558 30.88295907-.892364 56.80047997 19.02288 80.97946027 22.030639 26.7478356 41.647271 55.1976876 59.94286 84.7275856 21.746919 35.098638 31.299331 71.747016 22.658992 112.695007-2.64124 12.51322-4.016271 25.328999-5.367757 38.071296-5.318938 50.183617 13.641045 85.99136 54.383825 99.437047 37.821341 12.480519 76.849691 17.244548 116.529232 10.406542 44.985496-7.752759 90.008851-13.728895 135.866348-10.699707 13.22437.873588 26.61645-.834742 39.38741-4.936502 23.922-7.683799 35.55771-26.614565 29.07154-47.678357-3.94971-12.827702-10.56643-24.19393-20.19312-33.896052-11.44949-11.539022-24.56696-20.865591-37.63318-30.318999-30.21495-21.856508-50.80699-50.005758-61.212889-86.427226-12.221491-42.777122-35.247204-78.207994-74.702252-101.888869-21.901642-13.1461053-43.235864-27.5445632-62.178054-44.9971968-20.016129-18.4430111-35.867336-39.2642193-41.305599-65.47402907h8.555933c8.580967 31.84350487 30.17177 57.02752557 59.676932 78.13312067 18.123609 12.9629615 36.381059 25.7771232 55.053529 37.9290192 34.410049 22.398735 51.415416 56.688254 62.558727 93.945585 10.549273 35.268291 30.289713 62.84908 59.527093 84.304474 13.37906 9.819563 26.98528 19.282127 38.79699 31.133486 10.00364 10.038849 16.8992 21.809752 20.79147 35.152173 7.08674 24.291163-9.06547 50.492724-35.45647 58.159544-12.39939 3.600229-25.29421 5.294291-38.04313 4.437586-45.854689-3.07416-90.846588 3.120635-135.851518 10.693405-42.633337 7.184602-84.058657.803549-121.198054-11.859454-55.226794-23.404296-61.507546-50.382212-59.856898-102.533586.41965-13.210999 2.690312-26.494864 5.387251-39.480473 8.301328-39.95685-.971137-75.785133-22.10661-110.025031-17.737855-28.735893-36.191772-56.931149-58.105587-82.5159697-23.4461-27.3701379-30.345547-56.5108035-21.434902-87.47387917z"
    fill="url(#a)" 
    />
</svg>